<?xml version="1.0" standalone="no"?>
<!DOCTYPE svg PUBLIC "-//W3C//DTD SVG 20010904//EN"
 "http://www.w3.org/TR/2001/REC-SVG-20010904/DTD/svg10.dtd">
<svg version="1.0" xmlns="http://www.w3.org/2000/svg"
 width="512.000000pt" height="512.000000pt" viewBox="0 0 512.000000 512.000000"
 preserveAspectRatio="xMidYMid meet">

<g transform="translate(0.000000,512.000000) scale(0.100000,-0.100000)"
fill="#000000" stroke="none">
<path d="M0 3707 l0 -1413 153 -77 c228 -115 417 -245 455 -313 6 -10 6 -30 1
-48 -6 -26 -6 -28 4 -12 7 10 44 64 83 120 102 145 177 208 296 248 l59 20 23
-21 c23 -22 46 -28 46 -12 0 5 19 16 42 23 46 16 50 20 73 98 9 30 23 64 30
76 16 25 132 65 260 90 50 9 95 21 102 26 10 8 25 78 28 138 1 14 11 47 23 73
25 56 27 84 7 111 -18 23 -14 27 -53 -56 -17 -38 -43 -84 -58 -104 -33 -43
-139 -94 -204 -98 -25 -2 -34 -2 -20 0 36 6 111 47 107 59 -2 5 -14 12 -28 16
-23 7 -23 7 5 8 42 1 94 37 115 80 29 55 54 149 48 179 -3 14 0 49 6 77 6 29
7 60 3 71 -7 19 -8 19 -23 -1 l-16 -20 8 20 c19 54 17 82 -6 106 -13 13 -36
40 -50 59 -15 19 -30 32 -35 27 -4 -4 -7 -38 -7 -75 0 -37 -2 -53 -4 -37 -8
58 -13 62 -33 25 -23 -42 -26 -19 -5 40 8 23 15 52 15 64 0 19 -2 18 -26 -9
-21 -25 -21 -23 4 15 19 28 33 64 37 98 7 52 -3 267 -12 258 -3 -2 -11 -22
-18 -43 -12 -31 -14 -33 -14 -13 0 14 4 43 9 65 11 45 2 215 -11 215 -5 0 -9
-7 -9 -15 0 -8 -4 -15 -10 -15 -14 0 -13 170 1 225 16 62 6 77 -19 30 -12 -22
-21 -36 -22 -31 0 5 16 41 36 79 47 90 41 121 -9 47 -20 -30 -37 -49 -37 -42
0 16 26 68 52 102 23 31 55 114 79 205 22 83 23 112 3 70 l-15 -30 6 30 c4 17
13 37 20 45 17 19 48 90 42 96 -6 6 -83 -114 -103 -161 -10 -22 -20 -71 -24
-110 l-7 -70 -2 62 c-1 74 23 146 84 248 55 91 95 171 89 177 -9 10 42 134 78
188 20 30 54 71 74 90 36 33 36 33 15 5 -56 -76 -99 -143 -115 -180 -11 -22
-25 -53 -33 -69 -30 -58 4 -15 62 80 33 53 82 121 109 150 l48 54 -906 0 -906
0 0 -1413z m1353 1002 c16 -26 1 -49 -33 -49 -26 0 -30 3 -30 28 0 16 3 32 7
36 12 11 45 2 56 -15z m-83 -1012 c0 -5 -4 -5 -10 -2 -5 3 -10 14 -10 23 0 15
2 15 10 2 5 -8 10 -19 10 -23z m291 -684 c-12 -20 -14 -14 -5 12 4 9 9 14 11
11 3 -2 0 -13 -6 -23z m-1021 13 c0 -3 -4 -8 -10 -11 -5 -3 -10 -1 -10 4 0 6
5 11 10 11 6 0 10 -2 10 -4z m990 -62 c0 -8 -4 -12 -10 -9 -5 3 -10 10 -10 16
0 5 5 9 10 9 6 0 10 -7 10 -16z m26 -39 c-11 -8 -24 -15 -30 -15 -5 0 -1 7 10
15 10 8 24 14 29 14 6 0 1 -6 -9 -14z m-1248 -278 c2 -10 -3 -17 -12 -17 -18
0 -29 16 -21 31 9 14 29 6 33 -14z"/>
<path d="M2660 5115 c0 -12 24 -55 32 -55 4 0 8 -6 8 -14 0 -8 7 -16 15 -20 8
-3 15 -12 15 -20 0 -9 10 -25 22 -36 18 -16 20 -23 10 -29 -11 -6 -10 -10 4
-15 9 -4 22 -2 28 4 14 14 26 13 26 -2 1 -17 47 -51 59 -43 5 3 22 -6 37 -20
15 -14 31 -25 36 -25 5 0 24 -11 42 -25 20 -15 40 -23 50 -19 9 3 16 2 16 -4
0 -6 -5 -12 -12 -14 -7 -3 -9 -11 -4 -24 6 -12 10 -15 13 -6 3 6 8 12 12 12 8
0 95 -122 116 -161 5 -11 13 -19 17 -19 5 0 8 -6 8 -13 0 -8 9 -22 20 -32 25
-23 95 -160 105 -205 4 -19 4 -32 1 -29 -11 10 -76 121 -76 129 0 4 -20 27
-45 51 -25 24 -45 50 -45 57 0 7 -4 11 -9 7 -5 -3 -12 3 -16 14 -6 19 -172
107 -183 97 -3 -3 3 -15 13 -26 24 -27 16 -25 -25 5 -18 14 -35 23 -38 21 -2
-2 23 -36 56 -75 61 -73 131 -191 113 -191 -6 0 -11 6 -11 14 0 8 -4 16 -8 18
-4 2 -28 31 -52 66 -29 42 -46 59 -51 50 -5 -9 -13 -5 -28 13 l-21 24 10 -27
c5 -15 18 -44 28 -65 11 -21 22 -56 26 -78 4 -22 9 -53 12 -70 l6 -30 -21 22
c-12 12 -21 26 -21 32 0 14 -42 122 -47 118 -1 -2 2 -18 8 -36 19 -53 3 -46
-25 11 -15 29 -23 44 -20 33 3 -11 10 -38 16 -59 5 -22 15 -51 23 -65 16 -30
35 -120 34 -159 -1 -17 -7 -4 -19 38 l-18 65 -2 -60 -2 -60 -11 45 -11 45 -6
-55 c-5 -52 -6 -53 -15 -25 -9 28 -9 27 -15 -25 l-5 -55 -20 100 c-17 90 -20
96 -25 60 -6 -46 -14 -38 -26 25 l-8 45 -8 -70 c-4 -38 -4 -94 -1 -124 4 -39
2 -52 -6 -47 -6 4 -11 16 -11 26 0 10 -4 22 -10 25 -10 6 -13 -2 -14 -42 -1
-13 -5 -23 -11 -23 -16 -2 -23 38 -24 130 -2 104 -16 89 -26 -29 -8 -99 -12
-112 -32 -104 -12 5 -13 -1 -7 -31 4 -25 2 -46 -7 -62 -9 -17 -10 -28 -3 -32
6 -4 11 -16 11 -27 1 -11 4 -31 8 -45 l7 -25 -26 28 c-33 36 -40 34 -32 -8 7
-34 6 -35 -24 -35 -33 0 -149 36 -165 51 -9 9 -65 -43 -65 -61 0 -25 -144 -88
-175 -76 -19 7 -14 68 6 74 22 7 39 33 39 61 0 14 12 58 25 96 14 39 21 71 15
73 -5 2 -6 10 -3 18 3 7 8 12 12 9 4 -2 7 10 7 28 0 18 8 50 18 72 10 22 13
36 8 30 -14 -14 -92 -167 -92 -181 0 -6 -8 -22 -18 -35 -10 -13 -24 -44 -31
-69 -24 -88 -83 -240 -93 -240 -5 0 -6 -4 -3 -10 3 -5 1 -10 -4 -10 -15 0 -70
-113 -80 -163 -5 -23 -12 -50 -16 -61 -7 -16 -5 -17 12 -8 18 10 20 9 15 -13
-8 -46 14 -26 42 38 15 34 37 80 47 102 10 22 19 45 19 51 0 14 33 44 48 44 8
0 9 -7 1 -27 -8 -23 -8 -26 2 -15 24 23 69 13 123 -25 l51 -38 104 2 c57 1
109 7 114 12 6 6 19 11 28 11 16 0 59 71 59 97 0 17 37 46 45 34 11 -20 45
-13 45 9 0 11 5 20 11 20 7 0 9 -11 5 -32 -4 -18 -9 -113 -13 -210 -7 -209 -8
-213 -100 -223 -76 -9 -93 -14 -93 -29 0 -30 54 -50 62 -24 3 7 8 -6 11 -30 7
-40 14 -47 46 -43 7 2 11 -3 9 -10 -3 -8 -25 -14 -52 -16 -26 -2 -63 -10 -83
-18 -19 -8 -48 -15 -64 -15 -39 0 -81 -18 -77 -33 3 -6 15 -17 28 -24 31 -16
59 -53 60 -79 0 -25 18 -44 42 -44 10 0 28 -5 41 -12 12 -6 29 -14 37 -18 29
-14 33 -110 5 -110 -7 0 -18 -7 -25 -15 -10 -12 -27 -15 -74 -11 l-61 5 34
-15 c19 -9 55 -18 80 -21 66 -8 67 -17 1 -10 -118 11 -213 64 -333 182 -128
127 -190 242 -213 395 -10 64 -21 82 -29 47 -8 -32 -25 -26 -25 9 0 13 -5 24
-11 24 -21 0 0 -301 31 -435 18 -75 18 -79 3 -93 -7 -7 -13 -25 -13 -38 0 -29
28 -89 37 -80 4 3 17 -4 30 -16 13 -12 67 -49 120 -82 104 -65 130 -93 304
-316 80 -103 153 -225 174 -290 13 -42 -12 -12 -30 37 -27 73 -75 142 -215
313 -134 163 -155 183 -260 244 -36 21 -75 47 -87 59 -13 11 -23 16 -23 10 0
-12 67 -62 140 -105 61 -37 81 -56 191 -188 119 -144 185 -232 214 -290 30
-59 65 -174 65 -213 0 -51 -17 -18 -29 58 -12 68 -74 213 -110 252 -9 10 -49
58 -90 106 -40 48 -78 90 -84 94 -16 10 54 -86 81 -111 12 -11 32 -40 42 -63
11 -23 25 -45 30 -48 6 -4 8 -16 5 -28 -5 -17 -4 -19 4 -7 11 17 10 17 39 -33
26 -45 27 -51 7 -43 -18 7 -20 -5 -3 -22 9 -9 7 -12 -11 -12 -12 0 -19 4 -16
10 3 6 0 10 -9 10 -9 0 -13 8 -12 25 3 19 0 23 -12 16 -11 -6 -27 0 -54 22
-21 17 -41 28 -44 24 -18 -17 172 -227 206 -227 6 0 10 -4 10 -9 0 -6 -17 -8
-37 -5 -32 4 -26 0 34 -26 l72 -31 59 -152 c33 -84 68 -174 78 -202 25 -72 48
-100 99 -125 51 -25 60 -22 80 27 14 34 13 40 -45 213 -33 98 -60 185 -60 195
0 9 22 43 48 74 124 146 145 189 150 312 5 110 -12 184 -56 253 -24 37 -27 39
-30 18 -4 -25 -20 -25 -36 0 -7 12 -3 38 14 93 24 76 24 77 55 71 16 -3 95
-17 175 -31 102 -18 163 -35 204 -56 53 -26 61 -28 76 -14 9 8 30 15 46 15 22
0 25 3 14 10 -8 5 -12 11 -10 13 3 2 24 18 46 35 23 18 44 32 47 32 3 0 52 31
109 69 57 37 117 76 133 85 42 23 69 40 75 47 3 3 35 22 72 42 37 20 86 48
108 62 22 14 42 25 44 25 2 0 37 19 78 43 105 62 367 189 512 249 28 11 71 29
95 40 35 15 329 118 339 118 1 0 2 387 2 860 l0 860 -1230 0 c-676 0 -1230 -2
-1230 -5z m150 -147 c-1 -18 -40 30 -40 49 0 11 7 7 20 -10 11 -14 20 -31 20
-39z m57 -50 c-3 -8 -6 -5 -6 6 -1 11 2 17 5 13 3 -3 4 -12 1 -19z m98 -38 c3
-5 -1 -10 -9 -10 -9 0 -16 5 -16 10 0 6 4 10 9 10 6 0 13 -4 16 -10z m45 -35
c13 -14 19 -25 13 -25 -6 0 -18 11 -27 25 -9 14 -15 25 -13 25 2 0 14 -11 27
-25z m-10 -384 c0 -18 -4 -14 -24 29 l-17 35 20 -25 c11 -14 21 -31 21 -39z
m678 -89 c2 -7 -3 -12 -12 -12 -9 0 -16 7 -16 16 0 17 22 14 28 -4z m-1358
-662 c0 -5 -4 -10 -10 -10 -5 0 -10 5 -10 10 0 6 5 10 10 10 6 0 10 -4 10 -10z
m71 -63 c-17 -17 -22 -3 -8 26 11 25 12 25 15 6 2 -12 -1 -26 -7 -32z m585
-63 c-3 -8 -10 -14 -15 -14 -5 0 -4 13 2 31 8 21 13 26 15 14 2 -9 1 -23 -2
-31z m-98 -134 c26 -21 39 -80 18 -80 -7 0 -19 -14 -27 -32 -16 -36 -42 -51
-38 -22 2 11 0 25 -4 32 -5 7 -3 12 4 12 10 0 10 3 1 12 -13 13 -17 80 -5 91
11 11 27 7 51 -13z m-24 -175 c3 -9 0 -15 -10 -15 -8 0 -12 -4 -9 -10 3 -5 2
-10 -3 -10 -6 0 -9 11 -8 25 1 27 20 34 30 10z m131 -181 c-8 -20 -15 -39 -15
-42 0 -3 -2 -3 -5 0 -6 5 22 78 30 78 3 0 -2 -16 -10 -36z m-40 -85 c-9 -17
-19 -29 -22 -26 -5 5 25 57 33 57 3 0 -3 -14 -11 -31z m35 -60 c-75 -67 -89
-62 -16 7 32 30 62 52 65 48 3 -3 -19 -28 -49 -55z m-60 17 c0 -2 -8 -10 -17
-17 -16 -13 -17 -12 -4 4 13 16 21 21 21 13z m-45 -93 c4 -21 9 -47 11 -58 2
-11 -3 -6 -11 10 -8 17 -14 35 -15 42 0 21 -21 25 -41 7 -10 -9 -19 -14 -19
-11 0 11 43 47 56 47 7 0 16 -17 19 -37z m-928 -115 c-3 -8 -6 -5 -6 6 -1 11
2 17 5 13 3 -3 4 -12 1 -19z m945 -171 c-26 -68 -38 -163 -23 -181 7 -9 8 -28
2 -60 -7 -38 -6 -46 5 -42 11 4 11 0 2 -20 -11 -24 -13 -24 -20 -7 -6 12 -7 5
-4 -19 3 -21 0 -40 -5 -43 -5 -4 -9 -16 -9 -28 0 -13 -9 -40 -20 -62 -21 -42
-26 -75 -10 -75 13 0 80 90 80 107 0 8 4 12 8 9 5 -3 7 -19 4 -36 -2 -18 0
-30 7 -30 19 0 12 -39 -9 -50 -11 -6 -20 -21 -20 -33 0 -13 -19 -61 -42 -107
l-41 -85 -15 35 c-8 19 -16 62 -16 95 -1 62 38 263 73 373 10 34 17 62 15 62
-20 0 -75 -178 -90 -295 -4 -33 -10 -50 -12 -37 -6 38 28 232 54 307 13 38 29
99 35 134 9 60 60 173 67 151 2 -5 -5 -33 -16 -63z"/>
<path d="M2139 5060 c13 -11 29 -20 35 -20 7 0 36 -18 66 -40 63 -47 78 -44
30 5 -37 38 -105 75 -136 75 -17 -1 -17 -2 5 -20z"/>
<path d="M2626 5045 c-3 -8 -1 -15 4 -15 6 0 10 7 10 15 0 8 -2 15 -4 15 -2 0
-6 -7 -10 -15z"/>
<path d="M2008 5020 c-41 -12 -103 -50 -115 -69 -10 -17 -3 -20 85 -36 53 -9
104 -19 114 -21 19 -5 93 79 83 95 -7 12 -100 41 -124 40 -9 0 -28 -4 -43 -9z"/>
<path d="M2191 5001 l22 -30 -37 -42 c-53 -62 -44 -69 17 -14 28 27 53 49 55
50 5 4 -62 65 -70 65 -5 0 1 -13 13 -29z"/>
<path d="M2360 5011 c0 -5 12 -13 28 -19 51 -20 72 -24 72 -13 0 6 -10 11 -22
11 -13 0 -32 7 -42 15 -22 17 -36 19 -36 6z"/>
<path d="M2620 4995 c0 -8 5 -15 10 -15 6 0 10 7 10 15 0 8 -4 15 -10 15 -5 0
-10 -7 -10 -15z"/>
<path d="M2360 4970 c0 -5 12 -10 28 -10 21 0 24 2 12 10 -20 13 -40 13 -40 0z"/>
<path d="M2283 4953 c-24 -5 -32 -23 -10 -23 26 0 57 13 51 21 -3 5 -8 8 -12
8 -4 -1 -17 -4 -29 -6z"/>
<path d="M2508 4953 c7 -3 16 -2 19 1 4 3 -2 6 -13 5 -11 0 -14 -3 -6 -6z"/>
<path d="M2695 4951 c-6 -11 33 -26 43 -16 4 3 0 10 -8 15 -19 12 -27 12 -35
1z"/>
<path d="M2230 4900 c0 -5 7 -10 15 -10 8 0 15 5 15 10 0 6 -7 10 -15 10 -8 0
-15 -4 -15 -10z"/>
<path d="M1931 4889 c-41 -9 -80 -36 -104 -75 -52 -83 -107 -180 -107 -192 0
-6 16 6 36 28 20 22 43 40 51 40 10 0 5 -11 -16 -36 -44 -49 -75 -118 -67
-149 9 -37 29 -32 21 5 -6 27 8 45 17 20 2 -6 30 24 63 67 73 93 109 129 198
195 37 28 67 54 67 58 0 21 -112 49 -159 39z m69 -44 c7 -8 8 -15 2 -15 -5 0
-15 7 -22 15 -7 8 -8 15 -2 15 5 0 15 -7 22 -15z m50 -5 c0 -5 -7 -10 -15 -10
-8 0 -15 5 -15 10 0 6 7 10 15 10 8 0 15 -4 15 -10z"/>
<path d="M2572 4818 c3 -7 14 -17 26 -23 12 -5 22 -12 22 -15 0 -7 -70 -27
-139 -40 -59 -11 -78 -20 -41 -20 19 0 20 -2 10 -15 -17 -21 -5 -19 85 10 87
29 116 28 67 0 -18 -11 -32 -27 -32 -35 0 -9 -14 -29 -31 -46 -17 -16 -35 -38
-41 -49 -6 -11 19 9 55 45 36 36 77 72 92 80 19 10 25 20 21 34 -3 11 2 28 10
37 13 15 13 17 0 22 -9 4 -15 3 -15 -1 3 -20 -4 -19 -37 3 -40 28 -58 32 -52
13z"/>
<path d="M2950 4710 c19 -16 39 -30 43 -30 5 0 26 -14 48 -32 47 -38 64 -32
18 7 -26 21 -30 29 -19 35 12 7 11 10 -3 16 -10 3 -21 4 -24 0 -4 -3 -16 0
-27 7 -12 8 -32 16 -46 20 -23 6 -22 3 10 -23z"/>
<path d="M2660 4690 c0 -6 -11 -28 -25 -50 -38 -60 -30 -69 10 -11 36 52 43
71 25 71 -5 0 -10 -5 -10 -10z"/>
<path d="M2680 4650 c0 -5 5 -10 10 -10 6 0 10 5 10 10 0 6 -4 10 -10 10 -5 0
-10 -4 -10 -10z"/>
<path d="M1697 4484 c-11 -11 -8 -74 3 -74 14 0 23 46 13 65 -5 8 -12 12 -16
9z"/>
<path d="M2742 4395 c0 -16 2 -22 5 -12 2 9 2 23 0 30 -3 6 -5 -1 -5 -18z"/>
<path d="M1720 4369 c0 -5 5 -7 10 -4 6 3 10 8 10 11 0 2 -4 4 -10 4 -5 0 -10
-5 -10 -11z"/>
<path d="M2521 4324 c0 -11 3 -14 6 -6 3 7 2 16 -1 19 -3 4 -6 -2 -5 -13z"/>
<path d="M1627 4290 c-6 -16 -15 -30 -19 -30 -4 0 -8 -5 -8 -12 0 -9 3 -9 12
0 18 18 28 15 28 -8 0 -11 -6 -23 -14 -26 -19 -7 -10 -33 23 -62 l26 -24 5 44
c3 28 1 46 -7 51 -7 4 -13 28 -13 52 0 52 -16 59 -33 15z"/>
<path d="M2218 4261 c-21 -31 -38 -67 -38 -79 0 -12 -6 -22 -14 -22 -8 0 -13
-11 -13 -27 0 -16 -3 -44 -7 -63 -5 -23 1 -15 17 25 13 33 43 97 66 143 23 45
38 82 34 82 -5 -1 -25 -27 -45 -59z"/>
<path d="M2495 4250 c-7 -44 2 -71 16 -49 12 19 11 89 0 89 -5 0 -12 -18 -16
-40z"/>
<path d="M2557 4258 c-4 -11 -3 -36 3 -73 3 -18 19 29 19 58 1 28 -13 37 -22
15z"/>
<path d="M2335 4235 c-5 -11 -19 -46 -32 -79 -13 -32 -22 -61 -19 -64 8 -8 10
-4 40 71 15 38 25 74 23 80 -3 7 -8 4 -12 -8z"/>
<path d="M1570 4122 c-14 -51 -22 -242 -11 -242 4 0 29 44 56 98 26 53 53 100
59 104 7 5 -2 19 -24 38 -64 55 -66 55 -80 2z"/>
<path d="M2462 4125 c0 -16 2 -22 5 -12 2 9 2 23 0 30 -3 6 -5 -1 -5 -18z"/>
<path d="M1932 4095 c-29 -41 -46 -84 -23 -59 12 13 64 104 59 104 -2 0 -19
-20 -36 -45z"/>
<path d="M2092 4113 c-20 -38 -62 -172 -62 -198 0 -17 -4 -24 -12 -19 -8 5 -9
-3 -5 -29 3 -21 2 -37 -3 -37 -4 0 -16 -33 -25 -72 -10 -40 -21 -77 -26 -82
-5 -6 -9 -19 -9 -30 1 -34 15 -1 40 91 13 45 29 84 37 87 12 5 13 0 8 -25 -5
-23 -4 -30 5 -24 8 5 10 21 6 45 -4 26 5 78 28 171 34 129 38 161 18 122z"/>
<path d="M1971 4074 c0 -11 3 -14 6 -6 3 7 2 16 -1 19 -3 4 -6 -2 -5 -13z"/>
<path d="M2091 3967 c-33 -107 -40 -150 -17 -107 16 29 60 199 54 206 -3 2
-19 -42 -37 -99z"/>
<path d="M1922 3998 c-7 -7 -12 -17 -12 -24 0 -7 -23 -33 -50 -57 -46 -41 -49
-47 -33 -57 13 -8 14 -13 6 -16 -18 -8 -16 -29 3 -45 9 -7 20 -22 25 -34 7
-15 8 -13 4 10 -4 20 0 37 10 50 9 11 14 14 10 7 -8 -16 3 -52 16 -52 5 0 9 6
7 13 -1 6 7 41 19 77 43 132 41 162 -3 50 -15 -39 -29 -68 -31 -66 -6 5 22 98
37 126 13 25 9 35 -8 18z m-48 -113 c-4 -8 -8 -15 -10 -15 -2 0 -4 7 -4 15 0
8 4 15 10 15 5 0 7 -7 4 -15z"/>
<path d="M1631 3953 c-30 -61 -42 -103 -30 -103 5 0 9 -4 9 -10 0 -5 -6 -10
-14 -10 -12 0 -26 -20 -26 -36 0 -3 14 5 30 18 25 18 30 27 25 49 -4 18 -1 30
8 36 12 7 35 103 25 103 -2 0 -14 -21 -27 -47z"/>
<path d="M2280 3944 c-14 -19 -37 -49 -52 -67 -15 -18 -28 -35 -28 -39 0 -12
28 -9 35 3 4 6 14 8 22 5 8 -3 23 -1 34 4 23 13 26 60 4 60 -19 0 -19 10 1 38
9 13 14 25 13 27 -2 2 -15 -12 -29 -31z"/>
<path d="M1825 3940 c-3 -5 -2 -10 4 -10 5 0 13 5 16 10 3 6 2 10 -4 10 -5 0
-13 -4 -16 -10z"/>
<path d="M1751 3794 c-12 -15 -19 -34 -16 -42 3 -7 5 -23 5 -33 0 -30 17 -14
25 23 l7 31 17 -22 c16 -21 18 -21 31 -6 12 14 9 20 -17 46 l-30 31 -22 -28z"/>
<path d="M2021 3744 c0 -11 3 -14 6 -6 3 7 2 16 -1 19 -3 4 -6 -2 -5 -13z"/>
<path d="M1830 3700 c0 -6 -6 -10 -13 -10 -7 0 -19 -16 -26 -36 -11 -30 -11
-38 3 -53 9 -10 16 -24 16 -31 0 -9 9 -5 24 10 27 25 41 69 31 99 -6 20 -35
37 -35 21z"/>
<path d="M2038 3508 c-20 -37 -48 -100 -48 -109 0 -5 9 -9 20 -9 14 0 20 7 20
23 0 12 7 43 15 70 15 51 13 60 -7 25z"/>
<path d="M1925 3380 c3 -5 8 -10 11 -10 2 0 4 5 4 10 0 6 -5 10 -11 10 -5 0
-7 -4 -4 -10z"/>
<path d="M1510 3348 c0 -47 39 -133 54 -117 6 6 -31 120 -43 132 -8 8 -11 4
-11 -15z"/>
<path d="M1760 3285 c0 -8 4 -15 10 -15 5 0 7 7 4 15 -4 8 -8 15 -10 15 -2 0
-4 -7 -4 -15z"/>
<path d="M1660 2993 c1 -18 18 -35 24 -24 4 6 4 16 1 21 -7 12 -25 13 -25 3z"/>
<path d="M1680 2921 c0 -5 6 -14 14 -20 12 -10 13 -8 9 8 -5 21 -23 30 -23 12z"/>
<path d="M1896 2914 c-3 -9 -2 -23 4 -32 7 -14 9 -10 10 16 0 35 -5 41 -14 16z"/>
<path d="M5097 2739 c-9 -5 -22 -7 -27 -4 -6 4 -10 3 -9 -2 1 -4 1 -16 0 -27
-1 -15 -4 -16 -16 -6 -13 10 -15 9 -15 -8 0 -15 -10 -24 -35 -33 -38 -14 -49
-35 -12 -23 41 13 51 10 53 -18 2 -15 -1 -30 -5 -33 -5 -2 -7 6 -6 19 2 19 -1
22 -21 18 -27 -5 -30 -12 -11 -31 8 -9 8 -12 0 -7 -7 4 -13 -2 -15 -16 -2 -13
-9 -22 -15 -21 -7 2 -10 -4 -7 -12 5 -11 2 -13 -10 -9 -11 4 -16 1 -16 -10 0
-9 6 -16 13 -16 8 0 7 -3 -3 -9 -8 -6 -19 -7 -25 -5 -5 3 1 -4 14 -15 13 -12
21 -24 18 -27 -3 -4 -13 1 -22 10 -18 18 -45 22 -45 6 0 -5 5 -10 11 -10 5 0
7 -5 4 -11 -4 -6 -13 -8 -21 -5 -8 3 -11 0 -8 -9 5 -12 10 -12 30 2 13 8 24
14 25 12 7 -35 8 -52 2 -44 -13 16 -31 16 -37 -1 -4 -11 -2 -15 8 -11 8 3 16
1 18 -5 3 -8 11 -7 28 1 l25 12 -25 -20 c-14 -11 -28 -21 -31 -21 -4 0 -10 -7
-13 -16 -5 -14 -4 -15 8 -5 11 9 15 9 19 -1 4 -8 6 -7 6 4 1 19 21 20 33 3 5
-6 8 -5 8 3 0 7 5 10 10 7 6 -3 10 -1 10 5 0 6 5 8 12 4 6 -4 18 2 26 12 13
18 14 18 7 -3 -4 -14 -2 -23 4 -23 6 0 11 -6 11 -13 0 -8 7 -14 15 -14 11 0
12 4 3 14 -6 7 -8 16 -4 20 3 3 6 1 6 -5 0 -7 5 -12 11 -12 7 0 18 -8 25 -17
10 -15 13 22 14 210 0 125 -1 227 -2 227 -2 0 -11 -5 -21 -11z m-34 -76 c-6
-14 -33 -18 -33 -5 0 12 8 19 24 19 8 0 12 -6 9 -14z m-48 -124 c11 -16 1 -19
-13 -3 -7 8 -8 14 -3 14 5 0 13 -5 16 -11z m25 -35 c0 -8 -19 -13 -24 -6 -3 5
1 9 9 9 8 0 15 -2 15 -3z m-80 -95 c0 -6 -4 -7 -10 -4 -5 3 -10 11 -10 16 0 6
5 7 10 4 6 -3 10 -11 10 -16z m27 -24 c0 -8 -4 -12 -9 -9 -4 3 -8 9 -8 15 0 5
4 9 8 9 5 0 9 -7 9 -15z"/>
<path d="M4985 2710 c-3 -5 3 -10 14 -10 12 0 21 5 21 10 0 6 -6 10 -14 10 -8
0 -18 -4 -21 -10z"/>
<path d="M4950 2601 c0 -5 5 -13 10 -16 6 -3 10 -2 10 4 0 5 -4 13 -10 16 -5
3 -10 2 -10 -4z"/>
<path d="M4930 2574 c0 -8 5 -12 10 -9 6 4 8 11 5 16 -9 14 -15 11 -15 -7z"/>
<path d="M2989 2507 c32 -42 57 -89 66 -125 9 -31 31 -106 50 -167 48 -160 61
-213 90 -375 20 -110 33 -155 53 -187 15 -23 41 -64 57 -89 17 -26 55 -95 85
-152 30 -58 60 -107 65 -108 6 -2 26 24 45 58 19 34 45 73 57 86 12 13 23 27
25 30 2 4 15 18 30 31 l28 24 8 -23 c7 -19 2 -30 -28 -60 -20 -20 -54 -65 -75
-101 -21 -35 -45 -72 -53 -81 -14 -17 -12 -63 13 -259 8 -65 -15 -295 -39
-391 -24 -96 -101 -304 -115 -313 -5 -2 -93 -7 -196 -10 -103 -3 -191 -8 -195
-10 -10 -6 -34 23 -60 74 -73 146 -282 417 -421 546 -77 71 -229 187 -314 237
-70 42 -380 196 -442 220 -48 18 -43 1 -48 183 -2 57 -17 172 -31 243 -7 34
11 47 23 15 3 -10 13 -26 21 -35 11 -13 11 -18 3 -18 -8 0 -10 -7 -6 -20 4
-11 7 -30 9 -43 1 -13 6 -28 10 -35 4 -7 4 -17 0 -23 -3 -6 0 -15 7 -20 12 -8
12 -10 0 -18 -12 -7 -12 -13 -3 -24 7 -7 9 -17 5 -21 -9 -9 -13 -81 -4 -93 4
-7 350 -183 455 -231 12 -6 -17 274 -39 376 -4 15 -1 22 10 22 17 0 18 -7 -22
155 -32 130 -109 315 -132 315 -3 0 -11 -10 -16 -22 -6 -12 -21 -22 -35 -24
-14 -2 -70 -10 -125 -18 -55 -9 -119 -16 -142 -16 -23 0 -43 -5 -45 -12 -7
-20 -23 -1 -62 75 -38 75 -148 208 -161 195 -4 -4 3 -17 15 -30 29 -30 124
-192 160 -272 36 -78 55 -162 69 -291 18 -174 22 -275 11 -275 -5 0 -10 14
-10 31 0 66 -83 420 -95 407 -2 -2 3 -42 11 -88 22 -128 6 -265 -28 -244 -7 5
-9 -1 -5 -18 5 -18 3 -25 -8 -25 -8 0 -15 9 -15 19 0 10 -4 18 -10 18 -5 0
-10 -7 -10 -16 0 -10 -5 -14 -16 -10 -8 3 -13 2 -10 -3 3 -5 -1 -12 -10 -15
-23 -9 -31 -7 -14 4 13 8 13 11 1 22 -8 7 -11 8 -8 2 9 -17 -19 -37 -42 -31
-12 3 -27 -3 -37 -14 -9 -10 -20 -17 -24 -14 -8 5 -80 -61 -80 -73 0 -4 -9
-13 -20 -20 -11 -7 -20 -21 -20 -32 0 -21 -32 -55 -53 -55 -7 0 -11 -9 -9 -19
2 -11 -1 -15 -7 -11 -6 3 -15 -5 -21 -19 -5 -14 -14 -26 -20 -26 -5 0 -10 -6
-10 -14 0 -8 -9 -18 -20 -21 -11 -3 -20 -11 -20 -16 0 -5 -8 -9 -17 -9 -12 0
-14 -3 -6 -11 8 -8 2 -19 -20 -41 -18 -16 -26 -26 -18 -22 9 5 12 3 7 -4 -4
-7 -14 -12 -22 -12 -8 0 -15 -11 -16 -27 -3 -53 -4 -58 -11 -70 -4 -6 -17 -9
-29 -5 -17 4 -20 2 -15 -12 4 -10 0 -24 -9 -33 -8 -9 -13 -24 -11 -35 6 -21
-39 -81 -54 -73 -4 3 -16 -2 -26 -12 -20 -20 -84 -53 -102 -53 -6 0 -11 -5
-11 -10 0 -7 13 -9 33 -6 17 3 68 11 112 17 127 17 244 45 364 88 61 21 113
35 116 31 3 -4 -2 -25 -10 -46 -14 -38 -15 -38 -9 -6 l6 33 -49 -24 c-62 -32
-165 -63 -306 -93 l-112 -24 78 6 c44 3 131 18 195 34 65 17 122 30 127 30 23
-1 -39 -40 -88 -55 -28 -9 -61 -20 -72 -25 -38 -16 -113 -30 -266 -49 -83 -11
-157 -25 -163 -32 -8 -8 -8 -10 0 -6 11 6 306 48 328 46 6 0 2 -4 -9 -9 -42
-18 20 -11 81 10 70 23 93 25 44 4 -32 -14 -33 -17 -17 -28 19 -15 23 -46 6
-46 -6 0 -9 -6 -6 -13 3 -7 -10 -28 -29 -47 -19 -18 -34 -38 -34 -44 0 -7 -14
-31 -31 -54 -17 -23 -28 -42 -24 -42 3 0 -3 -10 -14 -21 -11 -12 -27 -37 -36
-55 -8 -18 -20 -36 -25 -39 -6 -4 -8 -10 -5 -14 2 -5 -4 -16 -15 -26 -11 -10
-20 -23 -20 -30 0 -6 -14 -33 -32 -61 -18 -27 -31 -53 -30 -57 2 -5 -7 -11
-18 -14 -66 -17 21 -23 363 -23 l382 1 -33 27 c-26 22 -32 34 -32 65 0 30 -7
45 -30 67 -16 15 -30 38 -30 51 0 12 -29 71 -65 130 -36 60 -65 111 -65 114 0
3 8 5 18 5 28 0 202 -177 202 -205 0 -6 20 -33 45 -60 50 -56 54 -81 12 -78
-15 1 -25 -2 -22 -8 4 -5 10 -9 15 -9 5 0 29 -14 54 -31 34 -22 52 -28 68 -23
47 14 164 75 176 91 10 14 12 14 12 2 0 -27 -30 -58 -92 -96 l-62 -38 33 -3
c18 -2 40 3 49 10 11 9 14 9 8 1 -5 -10 174 -13 858 -13 l864 0 64 69 c175
189 241 324 270 552 10 85 9 119 -6 253 -10 86 -16 177 -13 203 3 26 1 56 -4
65 -8 15 -39 159 -39 182 0 5 39 6 90 3 97 -6 132 -17 90 -27 -19 -5 -11 -9
35 -15 l60 -8 -50 -13 c-34 -8 -42 -13 -25 -14 72 -5 92 -20 27 -20 -62 0 -68
-17 -9 -25 60 -8 64 -11 86 -60 11 -22 25 -44 33 -48 7 -5 11 -12 8 -18 -4 -5
-1 -9 5 -9 6 0 8 -5 5 -10 -3 -6 1 -13 10 -16 9 -4 14 -13 11 -20 -3 -8 -2
-14 2 -14 9 0 56 -89 57 -106 0 -6 8 -19 18 -28 9 -10 17 -28 17 -41 0 -12 7
-26 16 -29 9 -4 14 -9 11 -12 -3 -4 1 -13 9 -22 10 -10 12 -17 5 -21 -6 -4 -1
-17 14 -33 16 -18 20 -28 12 -31 -8 -3 -5 -10 8 -21 11 -8 16 -16 11 -16 -4 0
-1 -11 8 -25 9 -14 16 -31 15 -38 -2 -20 13 -57 23 -57 6 0 8 -9 5 -19 -3 -12
1 -22 10 -25 8 -3 11 -11 8 -16 -4 -6 -1 -18 7 -27 7 -9 12 -18 11 -20 -9 -11
-1 -33 8 -27 8 5 10 -1 7 -19 -3 -15 0 -29 6 -32 8 -3 7 -7 -1 -11 -7 -3 -13
-10 -13 -15 0 -6 5 -7 10 -4 6 3 10 1 10 -4 0 -6 -5 -11 -11 -11 -8 0 -8 -4 1
-15 6 -8 10 -20 7 -27 -2 -7 0 -21 5 -30 5 -10 5 -18 0 -18 -12 0 -34 49 -27
61 4 5 -1 9 -10 9 -8 0 -18 7 -21 15 -4 8 -15 15 -26 15 -18 0 -19 2 -7 17 10
12 10 14 1 9 -17 -10 -73 31 -65 49 3 10 -2 15 -16 15 -12 0 -20 3 -20 8 4 21
-3 32 -20 32 -23 0 -45 25 -35 41 4 7 3 9 -4 6 -19 -12 -40 3 -34 25 4 18 2
20 -16 16 -12 -4 -19 -2 -16 3 3 5 -2 12 -10 15 -9 3 -16 12 -16 20 0 8 -6 11
-16 7 -13 -5 -15 -2 -10 14 4 14 1 23 -9 27 -10 4 -14 2 -9 -5 4 -7 1 -10 -7
-7 -8 3 -14 14 -15 25 -1 11 -6 28 -12 39 -11 18 -11 18 -12 1 0 -10 -4 -15
-10 -12 -5 3 -10 19 -10 35 0 39 -37 172 -65 235 -12 28 -28 65 -35 83 -8 21
-16 29 -20 22 -4 -7 -10 3 -14 24 -6 31 -22 54 -30 45 -2 -2 7 -58 20 -123 37
-188 46 -301 34 -403 -23 -188 -73 -280 -251 -456 l-118 -117 102 0 101 0 54
52 53 53 47 -53 c47 -53 47 -53 100 -50 l54 3 -76 82 -77 82 52 88 c39 67 50
80 45 55 -3 -18 -2 -31 2 -29 9 4 52 -40 44 -47 -3 -3 2 -6 12 -6 9 0 14 -5
11 -10 -3 -6 1 -10 9 -10 9 0 15 -3 14 -7 -2 -13 15 -47 34 -67 9 -10 15 -23
12 -28 -3 -4 2 -8 10 -8 9 0 18 -11 22 -24 3 -14 11 -23 17 -20 7 2 21 -9 32
-26 20 -29 21 -30 108 -30 l87 0 -5 43 -5 42 19 -42 20 -43 75 0 c83 0 86 2
86 76 0 43 1 44 26 38 l27 -7 -5 81 c-3 45 -1 79 3 76 12 -7 31 -74 25 -89 -7
-20 14 -77 36 -96 10 -9 18 -21 18 -26 0 -6 14 -16 30 -23 17 -7 30 -16 30
-21 0 -5 14 -9 30 -9 17 0 30 3 30 7 0 3 -26 43 -58 87 -98 136 -132 187 -166
247 -23 42 -17 36 37 -33 23 -30 71 -90 106 -134 35 -43 75 -100 90 -126 l26
-48 143 0 142 0 0 755 c0 497 -3 755 -10 755 -5 0 -10 -6 -10 -13 0 -7 -13
-23 -30 -37 -20 -17 -30 -34 -30 -52 0 -22 -5 -28 -21 -28 -12 0 -18 -4 -13
-11 3 -6 0 -15 -7 -20 -8 -4 -15 -13 -15 -19 -1 -5 -2 -14 -3 -19 -1 -10 -41
-26 -54 -23 -5 2 -7 -3 -4 -10 2 -7 13 -12 23 -11 10 1 13 0 6 -3 -6 -3 -9
-11 -6 -16 4 -7 2 -8 -4 -4 -6 4 -25 -3 -42 -16 -23 -17 -33 -19 -39 -10 -5 9
-13 5 -29 -13 -13 -14 -26 -23 -31 -21 -5 3 -21 -6 -37 -20 -33 -31 -117 -84
-132 -84 -7 0 -20 -7 -29 -15 -10 -8 -37 -28 -61 -45 -23 -17 -40 -35 -37 -40
4 -6 -2 -7 -12 -3 -15 5 -16 3 -6 -7 11 -11 7 -16 -18 -27 -21 -9 -29 -18 -25
-28 3 -8 2 -15 -3 -15 -4 0 -29 -16 -55 -36 -25 -21 -48 -35 -51 -32 -10 10
-171 336 -194 393 -15 35 -41 75 -64 97 -29 27 -47 59 -73 128 -19 51 -34 96
-34 99 0 3 10 11 23 16 31 15 25 45 -31 143 -75 133 -250 305 -346 342 -20 7
-26 15 -22 28 9 27 -32 42 -112 41 -65 -1 -66 -1 -37 -14 29 -14 29 -15 8 -21
-13 -3 -23 -11 -23 -16 0 -5 4 -7 9 -3 5 3 12 2 14 -3 3 -4 -15 -8 -39 -9 -32
-2 -47 2 -50 12 -4 10 -14 13 -30 9 -25 -6 -34 10 -11 19 6 3 -3 6 -21 6 -20
1 -31 -3 -27 -9 3 -5 0 -10 -9 -10 -9 0 -18 16 -24 43 -6 23 -14 53 -18 66 -6
21 -5 23 12 17 46 -19 272 -52 282 -41 3 3 -1 12 -8 21 -14 16 -16 23 -25 89
-11 74 -13 80 -37 81 -39 2 -202 25 -207 30 -2 2 22 4 55 5 42 0 53 3 39 9
-11 5 -15 9 -10 10 45 4 -150 50 -214 50 -21 0 -23 -4 -19 -32 l5 -33 -36 45
c-20 25 -55 65 -79 90 l-43 45 50 -68z m453 -471 c14 -1 30 -5 35 -10 11 -12
-144 1 -165 14 -12 8 -1 9 43 4 33 -4 72 -8 87 -8z m138 -57 c0 -23 6 -55 14
-72 8 -18 17 -47 20 -64 3 -18 9 -46 12 -63 13 -64 -14 -26 -44 63 -30 87 -40
155 -25 170 15 16 23 4 23 -34z m-1623 -425 c-3 -3 -12 -4 -19 -1 -8 3 -5 6 6
6 11 1 17 -2 13 -5z m1433 -35 c0 -5 -4 -9 -10 -9 -5 0 -10 7 -10 16 0 8 5 12
10 9 6 -3 10 -10 10 -16z m40 -4 c0 -8 9 -19 21 -26 16 -8 18 -14 10 -22 -9
-9 -14 -9 -20 1 -4 7 -15 10 -23 7 -9 -4 -19 -1 -23 5 -11 17 5 26 16 10 8
-11 9 -8 5 13 -4 15 -2 27 4 27 5 0 10 -7 10 -15z m1497 -300 c-15 -16 -19
-13 -11 9 3 9 10 13 15 10 5 -3 3 -11 -4 -19z m79 -36 c7 -5 17 -23 23 -39 8
-24 6 -35 -12 -61 -31 -46 -80 -73 -106 -59 -30 15 -27 51 11 153 10 25 15 28
41 23 17 -3 36 -11 43 -17z m-1121 -296 c19 -88 24 -320 8 -368 -7 -22 -9 3
-10 100 0 72 -8 177 -17 234 -9 58 -16 116 -15 130 0 25 1 25 9 4 5 -12 16
-57 25 -100z m-2215 74 c153 -67 374 -212 490 -321 79 -75 210 -219 210 -231
0 -4 13 -23 29 -43 65 -85 141 -190 141 -196 0 -4 11 -22 25 -40 33 -43 32
-53 -2 -21 -19 17 -39 25 -64 25 -19 0 -39 3 -43 7 -4 5 -11 8 -14 9 -4 0 -20
6 -35 12 -16 7 -46 13 -68 14 -31 1 -37 4 -27 15 8 11 7 12 -5 8 -11 -5 -35
20 -85 87 -75 100 -229 277 -276 318 -48 40 -126 95 -201 141 -152 93 -183
128 -170 197 7 41 -3 42 -17 1 -14 -41 -20 -31 -7 14 12 46 22 46 119 4z m325
-88 c189 -105 364 -263 513 -463 94 -127 171 -246 158 -246 -2 0 -18 14 -34
30 -17 17 -35 30 -40 30 -5 0 -36 32 -68 71 -233 283 -293 344 -494 503 -69
54 -132 105 -140 112 -31 29 14 13 105 -37z m-464 4 c-12 -20 -14 -14 -5 12 4
9 9 14 11 11 3 -2 0 -13 -6 -23z m3049 -14 c0 -5 -10 -9 -21 -9 -18 0 -19 2
-9 15 12 15 30 12 30 -6z m-2325 -39 c24 -17 47 -36 51 -42 7 -11 -31 13 -85
54 -39 30 -13 20 34 -12z m-754 -17 c-12 -20 -14 -14 -5 12 4 9 9 14 11 11 3
-2 0 -13 -6 -23z m222 -79 c56 -31 120 -66 142 -78 72 -38 229 -210 337 -369
57 -84 30 -62 -44 36 -34 45 -91 111 -126 147 l-63 65 -37 -41 c-59 -66 -91
-139 -101 -230 l-8 -79 -2 81 c-3 175 -22 221 -124 286 -26 17 -46 36 -44 43
3 6 -4 17 -15 24 -11 7 -17 15 -14 18 3 3 -1 18 -8 32 -27 49 -31 65 -27 106
2 25 27 17 134 -41z m748 39 c13 -17 13 -17 -6 -3 -11 8 -22 16 -24 17 -2 2 0
3 6 3 6 0 17 -8 24 -17z m1176 -5 c-3 -8 -6 -5 -6 6 -1 11 2 17 5 13 3 -3 4
-12 1 -19z m1043 -52 c0 -8 -5 -18 -11 -22 -14 -8 -33 11 -25 25 10 16 36 13
36 -3z m-2129 -23 c13 -16 12 -17 -3 -4 -17 13 -22 21 -14 21 2 0 10 -8 17
-17z m-1361 -8 c0 -2 -18 -14 -40 -25 -22 -11 -40 -18 -40 -15 0 2 17 13 38
24 42 23 42 23 42 16z m3260 -19 c0 -16 -18 -31 -27 -22 -8 8 5 36 17 36 5 0
10 -6 10 -14z m-859 -57 c-5 -13 -10 -19 -10 -12 -1 15 10 45 15 40 3 -2 0
-15 -5 -28z m-1939 -66 c59 -32 108 -63 108 -70 0 -19 -4 -17 -89 30 -42 24
-104 56 -138 72 -35 17 -65 35 -67 42 -7 18 62 -9 186 -74z m3406 55 c18 -18
14 -56 -7 -68 -28 -15 -39 -13 -51 11 -9 16 -8 26 5 45 17 26 35 30 53 12z
m-3385 -138 c99 -53 107 -66 106 -155 l-2 -70 -9 63 c-9 60 -13 65 -56 97 -26
19 -82 55 -124 80 -43 25 -80 50 -83 56 -9 14 80 -23 168 -71z m396 -65 c92
-111 227 -305 211 -305 -5 0 -10 3 -10 8 0 4 -9 13 -21 20 -12 8 -18 9 -15 3
7 -10 -2 -9 -41 6 -10 3 -25 7 -34 7 -9 1 -22 6 -30 12 -8 6 -30 19 -49 29
-19 9 -46 29 -60 44 -14 14 -43 40 -64 56 -21 17 -45 36 -53 44 -13 12 -16 12
-24 0 -15 -25 -10 38 6 79 27 63 58 103 80 100 11 -2 57 -48 104 -103z m-883
-138 c22 8 59 -21 88 -71 36 -61 41 -96 18 -122 -16 -19 -34 -23 -130 -29
l-111 -7 5 28 c6 34 68 179 92 214 17 25 17 25 20 3 2 -14 8 -20 18 -16z
m3248 -91 c3 -13 9 -31 12 -40 3 -9 1 -16 -5 -16 -6 0 -11 9 -11 21 0 11 -5
29 -10 40 -6 11 -7 19 -1 19 5 0 12 -11 15 -24z m-2877 -52 c-3 -3 -12 -4 -19
-1 -8 3 -5 6 6 6 11 1 17 -2 13 -5z m261 -90 c2 -1 -8 -1 -22 0 -26 1 -32 7
-19 19 3 4 13 1 22 -5 9 -7 17 -13 19 -14z"/>
<path d="M3431 2481 c-7 -5 -9 -11 -5 -14 13 -8 64 4 64 14 0 11 -41 11 -59 0z"/>
<path d="M1780 2400 c19 -13 30 -13 30 0 0 6 -10 10 -22 10 -19 0 -20 -2 -8
-10z"/>
<path d="M3430 2385 c0 -8 7 -15 16 -15 14 0 14 3 4 15 -7 8 -14 15 -16 15 -2
0 -4 -7 -4 -15z"/>
<path d="M1750 2356 c-37 -20 -129 -37 -215 -39 l-75 -2 0 -36 c0 -24 5 -39
15 -43 35 -13 132 -17 160 -6 54 21 179 40 189 30 16 -16 21 -12 23 19 2 21
-5 34 -22 45 -14 9 -25 23 -25 31 0 18 -17 19 -50 1z m-83 -72 c-3 -3 -12 -4
-19 -1 -8 3 -5 6 6 6 11 1 17 -2 13 -5z m-54 -11 c-7 -2 -19 -2 -25 0 -7 3 -2
5 12 5 14 0 19 -2 13 -5z m-50 -10 c-7 -2 -19 -2 -25 0 -7 3 -2 5 12 5 14 0
19 -2 13 -5z"/>
<path d="M1820 2350 c0 -5 5 -10 11 -10 5 0 7 5 4 10 -3 6 -8 10 -11 10 -2 0
-4 -4 -4 -10z"/>
<path d="M3600 2300 c6 -11 13 -20 16 -20 2 0 0 9 -6 20 -6 11 -13 20 -16 20
-2 0 0 -9 6 -20z"/>
<path d="M3660 2303 c0 -13 29 -38 35 -31 3 3 -4 13 -15 23 -11 10 -20 13 -20
8z"/>
<path d="M3515 2260 c-8 -13 38 -100 69 -129 36 -34 33 -12 -10 70 -36 68 -47
79 -59 59z"/>
<path d="M1850 2215 c0 -8 5 -15 10 -15 6 0 10 7 10 15 0 8 -4 15 -10 15 -5 0
-10 -7 -10 -15z"/>
<path d="M3068 2214 c-5 -4 -8 -21 -8 -38 0 -21 3 -27 11 -19 6 6 9 23 7 38
-2 15 -6 23 -10 19z"/>
<path d="M1818 2203 c7 -3 16 -2 19 1 4 3 -2 6 -13 5 -11 0 -14 -3 -6 -6z"/>
<path d="M1713 2183 c9 -2 23 -2 30 0 6 3 -1 5 -18 5 -16 0 -22 -2 -12 -5z"/>
<path d="M3313 2123 c9 -2 23 -2 30 0 6 3 -1 5 -18 5 -16 0 -22 -2 -12 -5z"/>
<path d="M3056 2099 c-28 -88 -41 -119 -84 -191 -27 -47 -53 -95 -56 -109 -4
-13 8 3 27 36 18 33 47 80 64 105 31 45 70 156 59 167 -3 3 -8 0 -10 -8z"/>
<path d="M3710 2055 c0 -3 29 -33 64 -66 111 -103 204 -238 240 -346 10 -29
21 -53 26 -53 19 0 21 24 5 78 -28 99 -37 126 -59 174 -20 43 -23 45 -41 32
-17 -13 -21 -13 -32 3 -21 27 -95 105 -141 146 -38 33 -62 46 -62 32z m260
-228 c-1 -21 -1 -21 -15 -3 -8 10 -12 23 -9 28 9 14 24 -2 24 -25z"/>
<path d="M3888 2023 c21 -49 47 -93 54 -93 10 0 -37 96 -52 105 -6 4 -7 -1 -2
-12z"/>
<path d="M0 1228 l0 -735 39 2 c21 1 43 5 49 9 6 3 13 0 15 -6 4 -10 6 -10 6
0 1 6 6 12 11 12 6 0 20 8 31 19 22 21 76 33 109 24 15 -4 19 -11 14 -27 -14
-48 51 63 83 142 19 47 55 126 81 176 25 50 45 94 44 99 -1 4 23 7 54 7 71 0
118 22 155 73 16 22 29 37 29 33 0 -13 -39 -82 -52 -93 -15 -12 -109 -34 -119
-27 -4 2 -10 0 -13 -5 -12 -19 45 -51 90 -51 62 0 92 23 154 114 144 212 220
309 313 397 67 64 179 129 226 132 27 1 37 6 33 15 -2 8 5 16 17 19 12 3 21
13 21 25 0 11 4 27 9 36 13 27 -7 80 -39 104 l-29 21 25 24 c29 27 26 42 -4
21 -66 -46 -277 -236 -371 -334 -142 -147 -205 -226 -272 -339 -68 -113 -98
-135 -185 -135 -73 0 -67 -12 -65 125 5 210 50 465 112 625 32 83 34 110 6 67
-14 -22 -20 -24 -60 -16 -51 9 -97 29 -97 41 0 4 -8 8 -17 8 -16 0 -133 40
-303 101 -30 11 -65 23 -77 26 l-23 5 0 -734z m253 445 c9 -9 -13 -34 -24 -27
-14 8 -11 34 4 34 8 0 17 -3 20 -7z m-109 -574 c-3 -5 -10 -7 -15 -3 -5 3 -7
10 -3 15 3 5 10 7 15 3 5 -3 7 -10 3 -15z m-43 -531 c9 -16 7 -24 -5 -36 -30
-30 -73 20 -46 53 14 17 37 9 51 -17z"/>
<path d="M3937 1899 c-4 -16 -3 -18 9 -8 7 6 11 15 8 20 -8 13 -11 11 -17 -12z"/>
<path d="M1137 1712 c-113 -102 -259 -257 -331 -351 -49 -64 -140 -201 -161
-242 -27 -51 -42 -59 -113 -59 -61 -1 -65 -2 -48 -15 11 -8 41 -15 67 -15 55
0 49 -7 170 178 94 143 249 316 427 476 105 94 132 127 104 126 -4 0 -55 -44
-115 -98z"/>
<path d="M3207 1568 c-41 -196 -49 -235 -53 -273 -4 -34 -2 -31 11 15 13 52
75 325 75 335 0 3 -3 5 -8 5 -4 0 -15 -37 -25 -82z"/>
<path d="M2860 1251 c0 -5 5 -13 10 -16 6 -3 10 -2 10 4 0 5 -4 13 -10 16 -5
3 -10 2 -10 -4z"/>
<path d="M2916 1237 c3 -10 9 -15 12 -12 3 3 0 11 -7 18 -10 9 -11 8 -5 -6z"/>
<path d="M490 915 c0 -34 -92 -252 -145 -346 -64 -111 -98 -207 -125 -354 -10
-55 -26 -120 -34 -144 -34 -95 -14 -92 24 4 87 221 309 563 381 587 9 3 6 11
-10 27 -35 35 -61 103 -68 176 -3 36 -10 65 -14 65 -5 0 -9 -7 -9 -15z"/>
<path d="M773 653 c9 -2 25 -2 35 0 9 3 1 5 -18 5 -19 0 -27 -2 -17 -5z"/>
<path d="M908 583 c7 -3 16 -2 19 1 4 3 -2 6 -13 5 -11 0 -14 -3 -6 -6z"/>
<path d="M833 573 c9 -2 23 -2 30 0 6 3 -1 5 -18 5 -16 0 -22 -2 -12 -5z"/>
<path d="M583 555 c-11 -8 -37 -38 -57 -67 -32 -46 -10 -30 26 19 7 10 26 29
42 41 32 24 23 31 -11 7z"/>
<path d="M703 553 c9 -2 25 -2 35 0 9 3 1 5 -18 5 -19 0 -27 -2 -17 -5z"/>
<path d="M585 515 c-19 -20 -35 -41 -35 -48 0 -7 5 -4 10 5 6 9 27 31 47 47
21 17 32 31 26 31 -7 0 -28 -16 -48 -35z"/>
<path d="M3092 405 c0 -16 2 -22 5 -12 2 9 2 23 0 30 -3 6 -5 -1 -5 -18z"/>
<path d="M3140 420 c0 -5 7 -10 15 -10 8 0 15 5 15 10 0 6 -7 10 -15 10 -8 0
-15 -4 -15 -10z"/>
<path d="M375 280 c-9 -16 -13 -30 -11 -30 3 0 12 14 21 30 9 17 13 30 11 30
-3 0 -12 -13 -21 -30z"/>
<path d="M0 135 l0 -135 69 0 70 0 15 53 c8 28 18 69 21 89 6 34 5 36 -14 31
-21 -5 -91 33 -91 50 0 4 -11 12 -25 17 -14 5 -25 14 -25 20 0 5 -4 10 -10 10
-6 0 -10 -52 -10 -135z"/>
<path d="M1565 20 c3 -5 11 -10 16 -10 6 0 7 5 4 10 -3 6 -11 10 -16 10 -6 0
-7 -4 -4 -10z"/>
</g>
</svg>
